<?xml version="1.0" encoding="UTF-8"?>
<svg enable-background="new 0 0 506.6274 175" version="1.1" viewBox="0 0 506.63 175" xml:space="preserve" xmlns="http://www.w3.org/2000/svg">
<style type="text/css">
	.st0{fill:#575756;}
	.st1{fill:#026BB0;}
	.st2{fill:#F5AA00;}
	.st3{fill:#E51D74;}
	.st4{fill:#78B517;}
</style>

	
		<path class="st0" d="m276.5 61.101c-6.9829 0-13.374 3.3906-16.857 8.7876l-0.2632-7.6357h-6.1455l0.0615 0.7554c0.3008 3.8076 0.417 7.1675 0.417 11.983v38.907h6.4258v-31.79c0-1.5586 0.3281-3.2163 0.5947-4.2964 1.9892-6.4873 7.9126-11.016 14.403-11.016 11.505 0 13.221 10.449 13.221 16.676v30.427h6.4258v-30.847c0-20.891-15.23-21.95-18.283-21.95z"/>
		<path class="st0" d="m338.32 101.27v-19.681c0-13.402-6.2515-20.484-18.074-20.484-5.2944 0-10.958 1.6475-15.145 4.4092l-0.4888 0.3213 2.1431 5.0039 0.7075-0.5059c3.2847-2.3481 7.6392-3.6401 12.267-3.6401h0.1812c3.6401 0 6.4907 0.9912 8.4663 2.9497 2.3652 2.3481 3.5171 5.9814 3.5171 11.108v0.6562h-0.2017c-12.11 0-20.788 2.5122-25.795 7.4717-3.1001 3.0659-4.6724 6.9897-4.6724 11.655 0 6.9932 4.8398 14.52 15.463 14.52 7.3384 0 12.787-3.6333 15.791-7.4238l0.6357 6.272h6.0635l-0.1333-0.8135c-0.6392-3.9375-0.7246-8.186-0.7246-11.819zm-21.109 8.1963c-4.5186 0-9.3481-2.5669-9.3481-9.7686 0-3.0864 1.0186-5.6396 3.0283-7.5913 3.5137-3.4146 10.018-5.1406 19.356-5.1406 0.54 0 1.0903 0.0034 1.6475 0.0171v10.1c0 0.728-0.082 1.8013-0.4854 2.8096-1.5757 4.6279-6.1319 9.5737-14.198 9.5737z"/>
		<path class="st0" d="m384.61 69.328c-2.2319-3.3633-7.0923-8.227-16.543-8.227-11.584 0-23.31 9.4097-23.31 27.395 0 14.482 9.5703 25.402 22.261 25.402 7.2666 0 13.456-3.0386 16.991-8.2339v4.915c0 13.012-5.8926 19.609-17.514 19.609-5.4961 0-10.404-1.3706-14.588-4.0742l-0.6836-0.4443-2.3447 5.2295 0.4443 0.335c3.6982 2.8027 9.9976 4.5425 16.44 4.5425 3.3325 0 11.717-0.6016 17.544-6.1626 4.9287-4.6826 7.1265-12.004 7.1265-23.745v-29.938c0-5.5439 0.123-9.4062 0.417-12.92l0.0649-0.7588h-6.043l-0.263 7.0751zm-16.334 38.982c-12.616 0-17.093-10.958-17.093-20.34 0-12.728 6.9521-21.28 17.302-21.28 6.9932 0 12.575 4.0879 14.936 10.944 0.4888 1.3672 0.5879 2.8643 0.5879 4.686v10.049c0 1.644-0.2837 3.4624-0.7964 5.0962-2.4233 6.6891-8.145 10.845-14.936 10.845z"/>
		<path class="st0" d="m452.91 91.207c-1.7568 5.3662-3.1001 9.6694-4.0845 13.6-1.1929-4.2554-2.6147-8.7671-4.3203-13.713l-9.7891-28.841h-5.7114l-10.216 29.049c-1.5688 4.5527-3.1719 9.3003-4.4263 13.59-0.9331-3.6743-2.0303-7.5024-3.2642-11.823l-8.979-30.314-0.147-0.5024h-6.6001l15.77 51.15 0.1538 0.4956h5.4038l10.107-28.304c2.1362-5.8721 3.6812-10.633 4.8843-15.094 1.2407 4.7339 2.7925 9.4849 4.686 14.974l9.6831 28.424h5.3013l17.213-51.646h-6.6172l-9.0472 28.954z"/>
		<path class="st0" d="m506.49 113.09c-0.6392-3.9375-0.7246-8.186-0.7246-11.819v-19.681c0-13.402-6.2515-20.484-18.074-20.484-5.2944 0-10.958 1.6475-15.145 4.4092l-0.4888 0.3213 2.1431 5.0039 0.7075-0.5059c3.2847-2.3481 7.6392-3.6401 12.267-3.6401h0.1812c3.6401 0 6.4907 0.9912 8.4663 2.9497 2.3652 2.3481 3.5171 5.9814 3.5171 11.108v0.6562h-0.2017c-12.11 0-20.788 2.5122-25.795 7.4717-3.1001 3.0659-4.6724 6.9897-4.6724 11.655 0 6.9932 4.8398 14.52 15.463 14.52 7.3384 0 12.787-3.6333 15.791-7.4238l0.6357 6.272h6.0635l-0.1333-0.8135zm-21.834-3.623c-4.5186 0-9.3481-2.5669-9.3481-9.7686 0-3.0864 1.0186-5.6396 3.0283-7.5913 3.5137-3.4146 10.018-5.1406 19.356-5.1406 0.54 0 1.0903 0.0034 1.6475 0.0171v10.1c0 0.728-0.082 1.8013-0.4854 2.8096-1.5757 4.6279-6.1319 9.5737-14.198 9.5737z"/>
	
	
		<polygon class="st1" points="0 145.83 50.515 175 50.515 116.66 151.56 175 151.56 116.66 0 29.168"/>
		<polygon class="st2" points="50.518 175 101.03 145.83 50.518 116.66"/>
		<polygon class="st2" points="151.56 0 101.04 29.168 151.56 58.335"/>
		<polygon class="st3" points="151.56 0 151.56 58.335 50.516 0 5e-4 29.168 151.56 116.66 151.56 175 202.07 145.83 202.07 29.168"/>
		<polygon class="st4" points="50.518 0 0.0022 29.168 50.518 58.335 101.03 29.168"/>
	

</svg>
